# xmcd
#
# Track frame offsets: 
#        150
#        15417
#        31882
#        47170
#
# Disc length: 845 seconds
#
# Revision: 3
# Processed by: cddbd v1.5.2PL0 Copyright (c) Steve Scherf et al.
# Submitted via: ExactAudioCopyFreeDBPlugin 1.0
#
DISCID=24034b04
DTITLE=ポチに八つ当たり - 細川ふみえ
DYEAR=1994
DGENRE=Onchi
TTITLE0=ポチに八つ当たり
TTITLE1=メロンの切り目
TTITLE2=ポチに八つ当たり
TTITLE3=メロンの切り目
EXTD=YEAR: 2011
EXTT0=
EXTT1=
EXTT2=
EXTT3=
PLAYORDER=
